<svg id="Icons" height="512" viewBox="0 0 74 74" width="512" xmlns="http://www.w3.org/2000/svg"><path d="m37 72a1 1 0 0 1 -1-1v-68a1 1 0 0 1 2 0v68a1 1 0 0 1 -1 1z"/><path d="m37 72c-.183 0-.354 0-.524-.012a34.992 34.992 0 0 1 .051-69.978 7.889 7.889 0 0 1 1 0 35 35 0 0 1 29.788 52.49 34.394 34.394 0 0 1 -2.8 4.127 1 1 0 1 1 -1.571-1.237 32.375 32.375 0 0 0 2.638-3.89 32.992 32.992 0 0 0 -28.135-49.49c-.18-.01-.31-.01-.447-.01s-.266 0-.4.008a33 33 0 0 0 -28.185 49.492 33.168 33.168 0 0 0 28.138 16.49c.18.01.31.009.447.01s.266 0 .4-.008a32.645 32.645 0 0 0 12.459-2.592 1 1 0 0 1 .782 1.842 34.58 34.58 0 0 1 -13.17 2.749c-.117.009-.288.009-.471.009z"/><path d="m56.511 65.85a1 1 0 0 1 -.574-1.819c.768-.539 1.529-1.123 2.259-1.737a1 1 0 0 1 1.287 1.532c-.775.651-1.583 1.271-2.4 1.843a.987.987 0 0 1 -.572.181z"/><path d="m37 72c-10.477 0-19-15.7-19-35s8.523-35 19-35 19 15.7 19 35-8.523 35-19 35zm0-68c-9.374 0-17 14.8-17 33s7.626 33 17 33 17-14.8 17-33-7.626-33-17-33z"/><path d="m71 38h-68a1 1 0 0 1 0-2h68a1 1 0 0 1 0 2z"/><path d="m66.45 21h-58.9a1 1 0 0 1 0-2h58.9a1 1 0 0 1 0 2z"/><path d="m66.45 55h-58.9a1 1 0 1 1 0-2h58.9a1 1 0 0 1 0 2z"/></svg>